<svg id="Layer_1" data-name="Layer 1" xmlns="http://www.w3.org/2000/svg" viewBox="0 0 122.88 121.83">
    <title>svg</title>
    <path fill="#fff"
          d="M12.88,80.88l9.24-.58a7,7,0,0,0,1.23,3.42,5.16,5.16,0,0,0,4.3,1.9,4.75,4.75,0,0,0,3.21-1A3,3,0,0,0,32,82.38a2.91,2.91,0,0,0-1.07-2.19c-.71-.65-2.37-1.25-5-1.83q-6.4-1.44-9.13-3.82a7.68,7.68,0,0,1-2.75-6.08,8.22,8.22,0,0,1,1.41-4.58,9.17,9.17,0,0,1,4.23-3.4,19.89,19.89,0,0,1,7.75-1.23q6,0,9.21,2.25c2.11,1.5,3.37,3.88,3.77,7.16l-9.16.54a5,5,0,0,0-1.53-3.12,5,5,0,0,0-3.24-1,4,4,0,0,0-2.56.71,2.23,2.23,0,0,0-.86,1.76,1.78,1.78,0,0,0,.7,1.35A7.78,7.78,0,0,0,27,70.09a40.72,40.72,0,0,1,9.14,2.79,9.64,9.64,0,0,1,4,3.49A8.83,8.83,0,0,1,41.45,81a10,10,0,0,1-1.67,5.59,10.52,10.52,0,0,1-4.69,3.88,18.9,18.9,0,0,1-7.58,1.32q-8,0-11.13-3.09a12.23,12.23,0,0,1-3.5-7.86Zm30.39-21.1H53.44l7.11,22.69,7-22.69h9.88L65.73,91.3H55.18L43.27,59.78ZM94.94,79.9V73.34H110V86.75a31.11,31.11,0,0,1-7.64,4,25.91,25.91,0,0,1-7.88,1.06,19.24,19.24,0,0,1-9.15-1.91,13,13,0,0,1-5.48-5.7,18.63,18.63,0,0,1-1.95-8.68,18.2,18.2,0,0,1,2.13-9,13.84,13.84,0,0,1,6.23-5.79,20.28,20.28,0,0,1,8.63-1.53,23.86,23.86,0,0,1,7.8,1,10,10,0,0,1,4.3,2.93,13,13,0,0,1,2.57,5l-9.38,1.69a5.1,5.1,0,0,0-2-2.74,6.09,6.09,0,0,0-3.54-1,6.36,6.36,0,0,0-5.1,2.23c-1.27,1.48-1.9,3.83-1.9,7q0,5.11,1.92,7.31A6.76,6.76,0,0,0,95,84.92a10.06,10.06,0,0,0,3.11-.47,17.86,17.86,0,0,0,3.39-1.6V79.9Z"/>
</svg>